<svg xmlns="http://www.w3.org/2000/svg" style="margin:auto;background:#f1f2f3;display:block;" width="280" height="250" preserveAspectRatio="xMidYMid">
<style type="text/css">
  text {
    text-anchor: middle; font-size: 80px; opacity: 0;
  }
</style>
<g style="transform-origin:140px 125px;transform:scale(1)">
<g transform="translate(140,125)">
  <g transform="translate(0,0)"><g class="path" style="opacity: 1; transform-origin: -24.56px -0.374935px; animation: 1s linear -0.55s infinite normal forwards running fade-43ee1da3-51bd-4c92-8fa2-cd8be68b60f8;"><path d="M3.76 9.60L3.76 9.60L3.76 9.60Q4.08 9.60 4.96 8.72L4.96 8.72L4.96 8.72Q5.84 7.84 11.12 1.28L11.12 1.28L11.12 1.28Q7.84 1.04 5.36-0.92L5.36-0.92L5.36-0.92Q2.88-2.88 2-5.60L2-5.60L2-5.60Q1.92-5.84 1.80-5.84L1.80-5.84L1.80-5.84Q1.68-5.84 1.48-3.64L1.48-3.64L1.48-3.64Q1.28-1.44 1.28 2.16L1.28 2.16L1.28 2.16Q1.28 9.60 3.76 9.60zM41.04-12L35.28-8.48L35.28-8.48Q29.84-4.88 23.64-2.08L23.64-2.08L23.64-2.08Q17.44 0.72 13.20 1.20L13.20 1.20L4.80 10.64L4.80 10.64Q3.60 11.92 2.72 11.92L2.72 11.92L2.72 11.92Q-0.48 11.92-0.48 4.32L-0.48 4.32L-0.48 4.32Q-0.48-3.04 1.68-10.56L1.68-10.56L1.68-10.56Q2.48-13.36 3.04-13.36L3.04-13.36L3.84-12.56L3.84-12.56Q3.44-10.72 3.44-9.36L3.44-9.36L3.44-9.36Q3.44-5.20 5.92-2.72L5.92-2.72L5.92-2.72Q8.40-0.24 12.08 0L12.08 0L12.08 0Q28.72-20.56 44.88-41.52L44.88-41.52L44.88-41.52Q43.04-40.24 41.68-39.28L41.68-39.28L41.68-39.28Q40.32-38.32 35.20-35.04L35.20-35.04L35.20-35.04Q30.08-31.76 26.04-29.64L26.04-29.64L26.04-29.64Q22-27.52 17-25.64L17-25.64L17-25.64Q12-23.76 8.64-23.76L8.64-23.76L8.64-23.76Q3.92-23.76 3.92-28.56L3.92-28.56L3.92-28.56Q3.92-31.52 5.76-35.44L5.76-35.44L5.76-35.44Q7.60-39.36 11.32-43.48L11.32-43.48L11.32-43.48Q15.04-47.60 19.88-51.08L19.88-51.08L19.88-51.08Q24.72-54.56 31.48-56.80L31.48-56.80L31.48-56.80Q38.24-59.04 45.44-59.04L45.44-59.04L45.44-59.04Q49.04-59.04 49.04-56.72L49.04-56.72L49.04-56.72Q49.04-54.24 45.48-50.44L45.48-50.44L45.48-50.44Q41.92-46.64 36.72-43.68L36.72-43.68L36.72-43.68Q31.52-40.72 27.44-40.72L27.44-40.72L27.44-40.72Q26-40.80 26-41.92L26-41.92L26-41.92Q26-43.04 27-44.16L27-44.16L27-44.16Q28-45.28 28.60-45.28L28.60-45.28L28.60-45.28Q29.20-45.28 29.20-45.04L29.20-45.04L29.20-45.04Q29.20-44.80 28.80-44.44L28.80-44.44L28.80-44.44Q28.40-44.08 28.40-43.80L28.40-43.80L28.40-43.80Q28.40-43.52 28.88-43.52L28.88-43.52L28.88-43.52Q31.84-43.52 36.48-46L36.48-46L36.48-46Q41.12-48.48 44.56-51.64L44.56-51.64L44.56-51.64Q48-54.80 48-56.56L48-56.56L48-56.56Q48-58.08 45.36-58.08L45.36-58.08L45.36-58.08Q39.44-58.08 32.16-54.44L32.16-54.44L32.16-54.44Q24.88-50.80 19.16-45.84L19.16-45.84L19.16-45.84Q13.44-40.88 9.52-35.72L9.52-35.72L9.52-35.72Q5.60-30.56 5.60-27.60L5.60-27.60L5.60-27.60Q5.60-24.80 9.20-24.80L9.20-24.80L9.20-24.80Q14.48-24.80 23.64-29.48L23.64-29.48L23.64-29.48Q32.80-34.16 39.60-38.96L39.60-38.96L39.60-38.96Q46.40-43.76 47.52-45.36L47.52-45.36L47.52-45.36Q48.08-46.08 49.48-46.08L49.48-46.08L49.48-46.08Q50.88-46.08 50.88-45.28L50.88-45.28L50.88-45.28Q50.88-44.48 50-43.20L50-43.20L50-43.20Q35.28-23.68 14.32 0L14.32 0L14.32 0Q22.40-0.96 34.08-8.80L34.08-8.80L39.44-12.16L39.44-12.16Q40-12.48 40.64-12.48L40.64-12.48L40.64-12.48Q41.28-12.48 41.28-12.32L41.28-12.32L41.28-12.32Q41.28-12.16 41.04-12L41.04-12" fill="#df60cf" stroke="none" stroke-width="none" transform="translate(-49.760009765625,23.185065816243497)" style="fill: rgb(223, 96, 207);"></path></g><g class="path" style="opacity: 1; transform-origin: 6.15999px -5.81493px; animation: 1s linear -0.44s infinite normal forwards running fade-43ee1da3-51bd-4c92-8fa2-cd8be68b60f8;"><path d="M54.80-26.64L54.80-26.64L54.80-26.64Q53.44-26.64 53.44-27.88L53.44-27.88L53.44-27.88Q53.44-29.12 54.64-30.24L54.64-30.24L54.64-30.24Q55.84-31.36 56.68-31.36L56.68-31.36L56.68-31.36Q57.52-31.36 57.96-30.88L57.96-30.88L57.96-30.88Q58.40-30.40 58.40-29.76L58.40-29.76L58.40-29.76Q58.40-29.12 57.28-27.88L57.28-27.88L57.28-27.88Q56.16-26.64 54.80-26.64" fill="#df60cf" stroke="none" stroke-width="none" transform="translate(-49.760009765625,23.185065816243497)" style="fill: rgb(223, 96, 207);"></path></g><g class="path" style="opacity: 1; transform-origin: -7.64001px 12.1051px; animation: 1s linear -0.33s infinite normal forwards running fade-43ee1da3-51bd-4c92-8fa2-cd8be68b60f8;"><path d="M34.56-1.36L34.56-1.36L34.56-1.36Q35.44-3.36 41.64-10.48L41.64-10.48L41.64-10.48Q47.84-17.60 51.04-20.80L51.04-20.80L51.04-20.80Q51.52-21.44 51.52-21.72L51.52-21.72L51.52-21.72Q51.52-22 50.88-22.08L50.88-22.08L49.04-22.24L49.04-22.24Q48.40-22.24 47.84-21.60L47.84-21.60L47.84-21.60Q42.40-16.08 37.56-9.56L37.56-9.56L37.56-9.56Q32.72-3.04 32.72-1.48L32.72-1.48L32.72-1.48Q32.72 0.08 33.68 0.08L33.68 0.08L33.68 0.08Q34.96 0.08 38.88-2.04L38.88-2.04L38.88-2.04Q42.80-4.16 46.08-6.32L46.08-6.32L49.36-8.48L49.28-9.52L49.28-9.52Q36.40-1.04 34.96-1.04L34.96-1.04L34.96-1.04Q34.56-1.04 34.56-1.36" fill="#df60cf" stroke="none" stroke-width="none" transform="translate(-49.760009765625,23.185065816243497)" style="fill: rgb(223, 96, 207);"></path></g><g class="path" style="opacity: 1; transform-origin: 10.16px 7.70507px; animation: 1s linear -0.22s infinite normal forwards running fade-43ee1da3-51bd-4c92-8fa2-cd8be68b60f8;"><path d="M52.64-7.28L52.64-7.28L52.64-7.28Q52.64-7.60 52.48-7.60L52.48-7.60L52.48-7.60Q51.36-7.60 50.52-5.76L50.52-5.76L50.52-5.76Q49.68-3.92 49.68-2.68L49.68-2.68L49.68-2.68Q49.68-1.44 49.92-1.04L49.92-1.04L49.92-1.04Q52.64-6 52.64-7.28zM92.24-54.64L92.24-54.64L92.24-54.64Q92.24-54.80 92-54.80L92-54.80L92-54.80Q89.20-54.80 59.60-18.80L59.60-18.80L59.60-18.80Q67.68-24.64 79.96-37.64L79.96-37.64L79.96-37.64Q92.24-50.64 92.24-54.64zM27.28 24.24L27.28 24.24L27.28 24.24Q27.28 24.48 27.60 24.48L27.60 24.48L27.60 24.48Q31.60 24.48 38.04 16.64L38.04 16.64L38.04 16.64Q44.48 8.80 49.36 0L49.36 0L49.36 0Q48.56-0.32 48.56-2.36L48.56-2.36L48.56-2.36Q48.56-4.40 50.24-7.20L50.24-7.20L50.24-7.20Q27.28 21.52 27.28 24.24zM93.52-56.64L93.52-56.64L93.52-56.64Q94.24-56.64 94.24-56L94.24-56L94.24-56Q94.24-52.72 89.76-46.72L89.76-46.72L89.76-46.72Q85.28-40.72 78.80-34.56L78.80-34.56L78.80-34.56Q64.80-20.96 56.48-14.96L56.48-14.96L51.36-8.56L51.36-8.56Q52-9.04 52.48-9.04L52.48-9.04L52.48-9.04Q53.76-9.04 53.76-7.20L53.76-7.20L53.76-7.20Q53.76-5.36 52.08-1.52L52.08-1.52L52.08-1.52Q55.04-2.96 58.40-5.04L58.40-5.04L65.36-9.52L65.44-8.48L65.44-8.48Q56-2.24 51.52-0.48L51.52-0.48L51.52-0.48Q47.28 8.48 39.68 17.08L39.68 17.08L39.68 17.08Q32.08 25.68 26.48 25.68L26.48 25.68L26.48 25.68Q25.60 25.68 25.60 24.64L25.60 24.64L25.60 24.64Q25.60 21.68 40.72 1.60L40.72 1.60L40.72 1.60Q55.84-18.48 72.72-37.56L72.72-37.56L72.72-37.56Q89.60-56.64 93.52-56.64" fill="#df60cf" stroke="none" stroke-width="none" transform="translate(-49.760009765625,23.185065816243497)" style="fill: rgb(223, 96, 207);"></path></g><g class="path" style="opacity: 1; transform-origin: 29.76px 3.14507px; animation: 1s linear -0.11s infinite normal forwards running fade-43ee1da3-51bd-4c92-8fa2-cd8be68b60f8;"><path d="M77.04-9.44L77.12-8.56L77.12-8.56Q64.56 0 61.12 0L61.12 0L61.12 0Q60.24 0 60.24-0.56L60.24-0.56L60.24-0.56Q60.24-2.80 66-10.72L66-10.72L66-10.72Q71.76-18.64 79.28-27.52L79.28-27.52L79.28-27.52Q71.60-27.68 69.84-27.68L69.84-27.68L69.84-27.68Q68.08-27.68 68.08-28.56L68.08-28.56L68.08-28.56Q68.08-28.88 68.80-28.88L68.80-28.88L80.24-28.64L80.24-28.64Q90-40.08 91.04-40.08L91.04-40.08L91.04-40.08Q93.20-40.08 93.20-39.40L93.20-39.40L93.20-39.40Q93.20-38.72 84.32-28.56L84.32-28.56L97.76-28.32L97.76-28.32Q98.80-28.32 98.80-28.04L98.80-28.04L98.80-28.04Q98.80-27.76 98.48-27.68L98.48-27.68L98.48-27.68Q98-27.44 90.56-27.44L90.56-27.44L83.36-27.44L83.36-27.44Q78.16-21.52 75.76-18.84L75.76-18.84L75.76-18.84Q73.36-16.16 69.52-11.68L69.52-11.68L69.52-11.68Q62.40-3.36 62.40-1.76L62.40-1.76L62.40-1.76Q62.40-1.44 63-1.44L63-1.44L63-1.44Q63.60-1.44 67.04-3.32L67.04-3.32L67.04-3.32Q70.48-5.20 72.24-6.48L72.24-6.48L77.04-9.44" fill="#df60cf" stroke="none" stroke-width="none" transform="translate(-49.760009765625,23.185065816243497)" style="fill: rgb(223, 96, 207);"></path></g><g class="path" style="opacity: 1; transform-origin: 37.08px 11.7838px; animation: 1s linear 0s infinite normal forwards running fade-43ee1da3-51bd-4c92-8fa2-cd8be68b60f8;"><path d="M80.40-10.56L77.12-8.48L77.12-8.48Q76.72-8.24 76.16-7.84L76.16-7.84L75.92-8.80L75.92-8.80Q84.96-14.56 90.64-17.76L90.64-17.76L92.80-19.04L92.80-19.04Q94-20 95.44-21.28L95.44-21.28L95.44-21.28Q98.48-23.68 98.64-23.60L98.64-23.60L98.64-23.60Q99.04-23.60 99.04-23.24L99.04-23.24L99.04-23.24Q99.04-22.88 98.40-22.04L98.40-22.04L98.40-22.04Q97.76-21.20 96.60-20.08L96.60-20.08L96.60-20.08Q95.44-18.96 95.20-18.64L95.20-18.64L95.20-18.64Q94-17.44 91.24-11L91.24-11L91.24-11Q88.48-4.56 88.24-4.08L88.24-4.08L88.24-4.08Q88.24-3.76 88.44-3.76L88.44-3.76L88.44-3.76Q88.64-3.76 88.72-3.84L88.72-3.84L97.68-9.52L97.76-8.48L97.76-8.48Q96.80-7.92 94.56-6.48L94.56-6.48L94.56-6.48Q92.32-5.04 91.40-4.48L91.40-4.48L91.40-4.48Q90.48-3.92 88.72-2.84L88.72-2.84L88.72-2.84Q86.96-1.76 86-1.28L86-1.28L86-1.28Q85.04-0.80 83.76-0.16L83.76-0.16L83.76-0.16Q80.48 0.80 79.60 0.80L79.60 0.80L79.60 0.80Q79.52 0.80 79.52 0.80L79.52 0.80L79.52 0.80Q77.36 0.80 76-0.48L76-0.48L76-0.48Q74.64-1.76 74.64-3.44L74.64-3.44L74.64-3.44Q74.64-5.12 75.80-6.32L75.80-6.32L75.80-6.32Q76.96-7.52 78.56-7.52L78.56-7.52L78.56-7.52Q80.16-7.52 80.16-6.24L80.16-6.24L80.16-6.24Q80.16-5.52 79.64-4.88L79.64-4.88L79.64-4.88Q79.12-4.24 78.36-4.24L78.36-4.24L78.36-4.24Q77.60-4.24 77.48-4.96L77.48-4.96L77.48-4.96Q77.36-5.68 77.04-5.68L77.04-5.68L77.04-5.68Q76.48-5.68 76.12-5.12L76.12-5.12L76.12-5.12Q75.76-4.56 75.76-3.52L75.76-3.52L75.76-3.52Q75.76-2.48 76.72-1.48L76.72-1.48L76.72-1.48Q77.68-0.48 79.44-0.48L79.44-0.48L79.44-0.48Q81.20-0.48 82.76-1.76L82.76-1.76L82.76-1.76Q84.32-3.04 84.88-4L84.88-4L84.88-4Q85.44-4.96 87.28-9.40L87.28-9.40L87.28-9.40Q89.12-13.84 91.12-16.40L91.12-16.40L91.28-16.72L91.28-16.72Q91.28-16.80 91.04-16.80L91.04-16.80L91.04-16.80Q90.40-16.80 80.40-10.56L80.40-10.56" fill="#df60cf" stroke="none" stroke-width="none" transform="translate(-49.760009765625,23.185065816243497)" style="fill: rgb(223, 96, 207);"></path></g></g>
</g>
</g>
</svg>